Coordinates
version=1
nRows=26
nColumns=22
inDegrees=yes

Units are S.I. units (second, meters, Newtons, ...)
If the header above contains a line with 'inDegrees', this indicates whether rotational values are in degrees (yes) or radians (no).

endheader
time	pelvis_tilt	pelvis_list	pelvis_rotation	pelvis_tx	pelvis_ty	pelvis_tz	hip_flexion_r	hip_adduction_r	hip_rotation_r	knee_angle_r	ankle_angle_r	subtalar_angle_r	hip_flexion_l	hip_adduction_l	hip_rotation_l	knee_angle_l	ankle_angle_l	subtalar_angle_l	lumbar_extension	lumbar_bending	lumbar_rotation
      4.04000000	      5.76792213	      0.67040511	     -3.38913857	      0.66383197	      0.91800467	      0.03584943	     18.08922133	     -0.76910743	     -3.61547617	    -16.05195792	     -3.74340312	      3.94421165	     -6.78373722	      2.43847125	    -12.66278022	    -21.49978122	     14.20280019	     -4.15372019	    -10.29576997	     -5.37733661	     -5.15846732
      4.05000000	      5.61715723	      0.82055682	     -3.11104848	      0.67207981	      0.91677213	      0.03656373	     17.74288697	     -0.79596944	     -3.73815154	    -13.71881671	     -4.02133119	      4.06701190	     -7.12425044	      2.47779742	    -12.49037236	    -21.60462806	     14.39172871	     -3.97409793	    -10.05574973	     -5.53469926	     -5.31742968
      4.06000000	      5.50312885	      0.94135714	     -2.82673795	      0.68036036	      0.91558427	      0.03735496	     17.40752403	     -0.79849989	     -3.82505445	    -11.84404288	     -4.21913577	      4.23941203	     -7.48368103	      2.46911664	    -12.30126280	    -21.75951769	     14.55472307	     -3.75298184	     -9.85674331	     -5.66200366	     -5.46121829
      4.07000000	      5.41427553	      1.03106184	     -2.54703144	      0.68867579	      0.91443470	      0.03821202	     17.11427089	     -0.77906958	     -3.88634471	    -10.47213263	     -4.34004305	      4.43834756	     -7.84241800	      2.41341981	    -12.09323320	    -21.97904259	     14.67855575	     -3.49194554	     -9.68111344	     -5.75053834	     -5.56839861
      4.08000000	      5.29419567	      1.10999143	     -2.27985145	      0.69697477	      0.91326021	      0.03915416	     16.94348174	     -0.75402927	     -3.90499990	     -9.61941611	     -4.48475623	      4.52443266	     -8.13072205	      2.33871460	    -11.82701616	    -22.26655906	     14.78135521	     -3.32078913	     -9.46989335	     -5.82826544	     -5.62781884
      4.09000000	      5.20745618	      1.12892201	     -2.01562489	      0.70535549	      0.91217192	      0.04015867	     16.79721530	     -0.68156327	     -3.94470780	     -9.23413292	     -4.60717474	      4.56404503	     -8.43259142	      2.18856944	    -11.55367299	    -22.61142286	     14.84565271	     -3.11282442	     -9.28584721	     -5.83132713	     -5.69000448
      4.10000000	      5.12496830	      1.11056621	     -1.77748071	      0.71378437	      0.91114298	      0.04123828	     16.70597876	     -0.57542215	     -3.92889122	     -9.26134762	     -4.77347285	      4.48644183	     -8.71080957	      2.00048357	    -11.24572682	    -23.01426939	     14.84608226	     -2.96053543	     -9.09566372	     -5.78572272	     -5.70471401
      4.11000000	      5.07502375	      1.02787056	     -1.54943365	      0.72223417	      0.91021760	      0.04241074	     16.65578920	     -0.41250036	     -4.00148724	     -9.67624044	     -5.06418455	      4.18623204	     -8.97286594	      1.73174768	    -10.93060703	    -23.51986653	     14.83265853	     -2.73234701	     -8.94240445	     -5.66990089	     -5.70063059
      4.12000000	      5.03882405	      0.90571944	     -1.37201629	      0.73075301	      0.90940561	      0.04370296	     16.63310684	     -0.19997902	     -4.05918383	    -10.34689447	     -5.43359920	      3.57899306	     -9.22223455	      1.43234236	    -10.59774448	    -24.08211166	     14.76877039	     -2.49617406	     -8.78878442	     -5.51047569	     -5.61963258
      4.13000000	      5.02151893	      0.70109259	     -1.20795492	      0.73931171	      0.90877882	      0.04507786	     16.59436742	      0.09982874	     -4.11291394	    -11.14152852	     -5.99704085	      3.00416431	     -9.43036219	      1.03963610	    -10.27451310	    -24.76015812	     14.60948711	     -2.37588144	     -8.65113548	     -5.25337626	     -5.55852444
      4.14000000	      5.03717060	      0.45901576	     -1.09172479	      0.74790601	      0.90834517	      0.04657669	     16.55661975	      0.44822880	     -4.19996022	    -12.06844744	     -6.52138097	      2.07431351	     -9.62977197	      0.61577970	     -9.96190149	    -25.51902616	     14.41111154	     -2.18066083	     -8.54280825	     -4.96339857	     -5.41776777
      4.15000000	      5.06515710	      0.14820813	     -1.00580244	      0.75652485	      0.90815049	      0.04817818	     16.49129940	      0.87764731	     -4.27149514	    -12.99994998	     -7.07479796	      1.22627409	     -9.77137434	      0.11629739	     -9.69453906	    -26.40353456	     14.07059955	     -2.03151867	     -8.44078487	     -4.59674367	     -5.29130804
      4.16000000	      5.09863677	     -0.21011758	     -0.94277258	      0.76513159	      0.90818878	      0.04987233	     16.39586464	      1.36482361	     -4.33034126	    -13.90189252	     -7.52667750	      0.39294405	     -9.83020322	     -0.43890504	     -9.46259918	    -27.43762061	     13.59587778	     -1.88644581	     -8.34272116	     -4.18426715	     -5.15081765
      4.17000000	      5.12929437	     -0.60093002	     -0.89505362	      0.77370404	      0.90845087	      0.05162747	     16.26761709	      1.88864134	     -4.38760645	    -14.74753706	     -7.82441753	     -0.30548281	     -9.78544246	     -1.03918443	     -9.28088284	    -28.63314031	     12.97302552	     -1.76151477	     -8.23945256	     -3.74141569	     -5.00840692
      4.18000000	      5.15683249	     -1.01569651	     -0.85006933	      0.78220718	      0.90892542	      0.05340363	     16.08629603	      2.43368305	     -4.45230980	    -15.49469829	     -7.96866239	     -0.76122393	     -9.61792737	     -1.68357481	     -9.15404949	    -30.01600650	     12.19268870	     -1.68042871	     -8.13430491	     -3.27654138	     -4.87683580
      4.19000000	      5.17331201	     -1.40660196	     -0.79406824	      0.79059210	      0.90956154	      0.05516503	     15.87315449	      2.94221604	     -4.56540350	    -16.16703123	     -7.89507028	     -1.22023267	     -9.31046311	     -2.32814734	     -9.06641079	    -31.57848449	     11.22834753	     -1.55370938	     -8.02241738	     -2.84293620	     -4.78856280
      4.20000000	      5.17805788	     -1.76361652	     -0.72313655	      0.79883627	      0.91034690	      0.05687286	     15.60681802	      3.40255458	     -4.71429710	    -16.71824879	     -7.64860428	     -1.56752218	     -8.86176029	     -2.95712336	     -8.98536292	    -33.30605657	     10.07019997	     -1.41116242	     -7.90093472	     -2.45048410	     -4.71520551
      4.21000000	      5.18786726	     -2.11914210	     -0.62424204	      0.80692217	      0.91127075	      0.05852344	     15.26310386	      3.84924388	     -4.89884158	    -17.13108787	     -7.34267638	     -1.73860288	     -8.29801046	     -3.60904530	     -8.88942317	    -35.17745421	      8.76651800	     -1.30058765	     -7.79388486	     -2.06027664	     -4.66430511
      4.22000000	      5.18101427	     -2.42222548	     -0.48876468	      0.81480025	      0.91225354	      0.06009004	     14.86842806	      4.22820732	     -5.12666403	    -17.39998428	     -6.95807054	     -1.86119784	     -7.58616692	     -4.23364550	     -8.77392534	    -37.19088526	      7.36125258	     -1.14777456	     -7.67883413	     -1.73429852	     -4.64152270
      4.23000000	      5.17042187	     -2.68161622	     -0.32495911	      0.82246521	      0.91327781	      0.06156518	     14.42399628	      4.55309147	     -5.37824687	    -17.55013961	     -6.54062283	     -1.93126300	     -6.76629989	     -4.82617816	     -8.61796265	    -39.29303637	      5.90576481	     -0.96195265	     -7.57190765	     -1.45893209	     -4.63882303
      4.24000000	      5.15785288	     -2.90245912	     -0.13422683	      0.82991015	      0.91430876	      0.06296249	     13.93984973	      4.83461093	     -5.64666492	    -17.59899031	     -6.10793897	     -1.96817400	     -5.85562429	     -5.38794657	     -8.42088628	    -41.45085248	      4.45774358	     -0.73157546	     -7.47434482	     -1.23262411	     -4.64697282
      4.25000000	      5.14562445	     -3.09135364	      0.07522768	      0.83711725	      0.91531004	      0.06426118	     13.43295004	      5.08088027	     -5.92129891	    -17.57627419	     -5.68485620	     -1.99513341	     -4.87291498	     -5.91379487	     -8.18235077	    -43.63577237	      3.09922558	     -0.44675577	     -7.39486660	     -1.04279293	     -4.65427640
      4.26000000	      5.12573659	     -3.25183552	      0.29674141	      0.84408048	      0.91623429	      0.06547133	     12.92486990	      5.30140938	     -6.16806630	    -17.50390320	     -5.25526877	     -2.03546644	     -3.82390115	     -6.40382642	     -7.91767032	    -45.82171494	      1.89856665	     -0.09144628	     -7.32508388	     -0.88499665	     -4.66716717
      4.27000000	      5.13495689	     -3.40447158	      0.51349638	      0.85082478	      0.91712814	      0.06662818	     12.39087621	      5.51904555	     -6.42381701	    -17.40724469	     -4.87913411	     -2.08816705	     -2.77673144	     -6.87709777	     -7.65734959	    -47.95958166	      0.86998857	      0.24522225	     -7.30567662	     -0.74355884	     -4.63793871
      4.28000000	      5.14001794	     -3.53999690	      0.72016211	      0.85733608	      0.91792016	      0.06772856	     11.87546057	      5.72898774	     -6.62642903	    -17.30361492	     -4.49912894	     -2.17204028	     -1.70348957	     -7.32303657	     -7.41499730	    -50.03026232	      0.07156831	      0.59054408	     -7.29956204	     -0.62293585	     -4.59898384
      4.29000000	      5.16105956	     -3.65500419	      0.89448607	      0.86363902	      0.91865462	      0.06880458	     11.36170055	      5.93049326	     -6.76719492	    -17.20503574	     -4.12396823	     -2.28064036	     -0.65350835	     -7.73752478	     -7.22489348	    -51.98178386	     -0.51428418	      0.87222572	     -7.32755377	     -0.53077045	     -4.52245928
